<svg width="14" height="12" viewBox="0 0 14 12" fill="none" xmlns="http://www.w3.org/2000/svg">
<path d="M12 0.666504H1.33333C0.6 0.666504 0 1.2665 0 1.99984V9.99984C0 10.7332 0.6 11.3332 1.33333 11.3332H12C12.7333 11.3332 13.3333 10.7332 13.3333 9.99984V1.99984C13.3333 1.2665 12.7333 0.666504 12 0.666504ZM11.7333 3.49984L7.37333 6.2265C6.94 6.49984 6.39333 6.49984 5.96 6.2265L1.6 3.49984C1.43333 3.39317 1.33333 3.21317 1.33333 3.01984C1.33333 2.57317 1.82 2.3065 2.2 2.53984L6.66667 5.33317L11.1333 2.53984C11.5133 2.3065 12 2.57317 12 3.01984C12 3.21317 11.9 3.39317 11.7333 3.49984Z" fill="white"/>
</svg>
