<svg width="31" height="31" viewBox="0 0 31 31" fill="none" xmlns="http://www.w3.org/2000/svg">
<path d="M7.89285 15.2588L15.0357 20.3432L22.1786 15.2588" stroke="#6E9500" stroke-width="1.5" stroke-linecap="round" stroke-linejoin="round"/>
<path fill-rule="evenodd" clip-rule="evenodd" d="M13.9563 2.26864C14.2833 2.06915 14.6563 1.96436 15.0357 1.96436C15.4151 1.96436 15.7881 2.06915 16.1151 2.26864L16.471 1.68533L16.1151 2.26864L27.5437 9.24153C27.8553 9.43165 28.1146 9.70153 28.2953 10.026C28.476 10.3506 28.5714 10.7181 28.5714 11.0926V26.8804C28.5714 27.4561 28.3464 28.0057 27.9498 28.409C27.5537 28.8118 27.019 29.0358 26.4643 29.0358H3.60714C3.05238 29.0358 2.51776 28.8118 2.12159 28.409C1.725 28.0057 1.5 27.4561 1.5 26.8804V26.0001H0V26.8804C0 27.8459 0.377039 28.7743 1.05209 29.4607C1.72756 30.1476 2.64638 30.5358 3.60714 30.5358H26.4643C27.425 30.5358 28.3439 30.1476 29.0193 29.4607C29.6944 28.7743 30.0714 27.8459 30.0714 26.8804L30.0714 11.0926C30.0714 10.4638 29.9113 9.84495 29.6059 9.29631C29.3003 8.7476 28.8595 8.28718 28.3249 7.96104L16.8963 0.988159C16.3352 0.645789 15.692 0.464355 15.0357 0.464355C14.3794 0.464355 13.7362 0.645789 13.1751 0.988159L1.74651 7.96104L1.74651 7.96105C1.21198 8.28718 0.771084 8.7476 0.465571 9.29631C0.1601 9.84495 -5.96046e-06 10.4638 0 11.0926V20.0001H1.5V11.0926C1.5 10.7181 1.59542 10.3506 1.77612 10.026C1.95679 9.70152 2.21616 9.43165 2.52777 9.24153L13.9563 2.26864L13.5657 1.6284L13.9563 2.26864Z" fill="white"/>
</svg>
