<svg width="29" height="28" viewBox="0 0 29 28" fill="none" xmlns="http://www.w3.org/2000/svg">
<rect x="0.875692" y="0.520833" width="26.9583" height="26.9583" rx="13.4792" fill="#0459BC" stroke="#6277BF" stroke-width="1.04167"/>
<path d="M17.6711 9.77875H17.7753V9.67458V7.36896V7.26479H17.6711H15.5667C13.757 7.26479 12.4526 8.80907 12.4526 10.6837V11.8542H10.3036H10.1994V11.9583V14.1254V14.2296H10.3036H12.4526V20.631V20.7352H12.5567H15.0403H15.1444V20.631V14.2296H17.2744H17.3612L17.3769 14.1442L17.775 11.9772L17.7976 11.8542H17.6726H15.1444V10.4387C15.1444 10.2424 15.2069 10.0731 15.2939 9.95488C15.383 9.83371 15.4871 9.77875 15.5667 9.77875H17.6711ZM0.459025 14C0.459025 6.32545 6.6803 0.104167 14.3549 0.104167C22.0294 0.104167 28.2507 6.32545 28.2507 14C28.2507 21.6746 22.0294 27.8958 14.3549 27.8958C6.6803 27.8958 0.459025 21.6746 0.459025 14Z" fill="white" fill-opacity="0.95" stroke="#6277BF" stroke-width="0.208333"/>
</svg>
