<svg width="30" height="20" viewBox="0 0 30 20" fill="none" xmlns="http://www.w3.org/2000/svg">
<path d="M0.740295 18.1277C0.740295 19.0254 1.46807 19.7532 2.36583 19.7532H28.3744C29.2722 19.7532 30 19.0254 30 18.1277C30 17.2299 29.2722 16.5021 28.3744 16.5021H2.36583C1.46807 16.5021 0.740295 17.2299 0.740295 18.1277ZM9 9.99999C9 10.8978 9.72778 11.6255 10.6255 11.6255H28.3744C29.2722 11.6255 30 10.8978 30 9.99999C30 9.10223 29.2722 8.37446 28.3744 8.37446H10.6255C9.72778 8.37446 9 9.10223 9 9.99999ZM2.36583 0.246765C1.46807 0.246765 0.740295 0.974544 0.740295 1.8723C0.740295 2.77006 1.46807 3.49784 2.36583 3.49784H28.3744C29.2722 3.49784 30 2.77006 30 1.8723C30 0.974544 29.2722 0.246765 28.3744 0.246765H2.36583Z" fill="#212325" fill-opacity="0.4"/>
</svg>
