<svg width="29" height="28" viewBox="0 0 29 28" fill="none" xmlns="http://www.w3.org/2000/svg">
<rect x="0.813883" y="0.104167" width="27.7917" height="27.7917" rx="13.8958" fill="#F4FAFE" stroke="#6277BF" stroke-width="0.208333"/>
<path d="M14.3099 7.04209C16.4459 7.04209 16.6989 7.05021 17.5425 7.08865C18.3225 7.12427 18.7461 7.25459 19.0281 7.36415C19.4014 7.50927 19.6679 7.68265 19.9479 7.96259C20.2279 8.24252 20.4012 8.50902 20.5463 8.8824C20.6559 9.16434 20.7862 9.58796 20.8218 10.3679C20.8602 11.2115 20.8684 11.4645 20.8684 13.6006C20.8684 15.7367 20.8602 15.9897 20.8218 16.8333C20.7862 17.6133 20.6559 18.0368 20.5463 18.3188C20.4012 18.6921 20.2278 18.9587 19.9479 19.2386C19.6679 19.5186 19.4014 19.692 19.0281 19.837C18.7461 19.9466 18.3225 20.077 17.5425 20.1125C16.6991 20.151 16.4461 20.1591 14.3099 20.1591C12.1736 20.1591 11.9206 20.151 11.0772 20.1125C10.2972 20.0769 9.87363 19.9466 9.59169 19.837C9.21831 19.692 8.95175 19.5186 8.67181 19.2386C8.39188 18.9586 8.2185 18.6921 8.07344 18.3188C7.96388 18.0369 7.8335 17.6133 7.79794 16.8333C7.75944 15.9897 7.75131 15.7367 7.75131 13.6006C7.75131 11.4645 7.75944 11.2115 7.79794 10.368C7.83356 9.58796 7.96388 9.16434 8.07344 8.8824C8.2185 8.50902 8.39188 8.24252 8.67181 7.96259C8.95181 7.68259 9.21831 7.50927 9.59169 7.36415C9.87356 7.25459 10.2972 7.12427 11.0772 7.08865C11.9208 7.05021 12.1737 7.04209 14.3099 7.04209ZM14.3099 5.60059C12.1372 5.60059 11.8647 5.60977 11.0115 5.64871C10.1599 5.68759 9.57838 5.82284 9.06956 6.02059C8.54344 6.22502 8.09731 6.49859 7.65256 6.94334C7.20781 7.38809 6.93431 7.83421 6.72988 8.36027C6.53206 8.86915 6.39688 9.45071 6.358 10.3022C6.31906 11.1555 6.30988 11.4279 6.30988 13.6006C6.30988 15.7733 6.31906 16.0457 6.358 16.899C6.39688 17.7505 6.53206 18.3321 6.72988 18.8409C6.93425 19.367 7.20781 19.8131 7.65256 20.2579C8.09731 20.7026 8.54344 20.9761 9.06956 21.1806C9.57844 21.3784 10.1599 21.5136 11.0114 21.5525C11.8647 21.5914 12.1372 21.6006 14.3099 21.6006C16.4826 21.6006 16.755 21.5914 17.6082 21.5525C18.4598 21.5136 19.0413 21.3784 19.5501 21.1806C20.0762 20.9762 20.5224 20.7026 20.9671 20.2579C21.4119 19.8131 21.6854 19.367 21.8899 18.8409C22.0876 18.332 22.2229 17.7505 22.2617 16.899C22.3007 16.0457 22.3099 15.7733 22.3099 13.6006C22.3099 11.4279 22.3007 11.1555 22.2617 10.3022C22.2229 9.45071 22.0876 8.86915 21.8899 8.36034C21.6854 7.83421 21.4119 7.38809 20.9671 6.94334C20.5224 6.49859 20.0763 6.22496 19.5502 6.02059C19.0413 5.82284 18.4598 5.68759 17.6082 5.64871C16.755 5.60977 16.4826 5.60059 14.3099 5.60059ZM14.3099 9.49246C12.041 9.49246 10.2018 11.3318 10.2018 13.6006C10.2018 15.8695 12.041 17.7087 14.3099 17.7087C16.5787 17.7087 18.418 15.8695 18.418 13.6006C18.418 11.3318 16.5787 9.49246 14.3099 9.49246ZM14.3099 16.2673C12.8371 16.2673 11.6432 15.0733 11.6432 13.6006C11.6432 12.1278 12.8371 10.9339 14.3099 10.9339C15.7826 10.9339 16.9766 12.1278 16.9766 13.6006C16.9766 15.0733 15.7826 16.2673 14.3099 16.2673ZM19.5402 9.33015C19.5402 9.8604 19.1105 10.2901 18.5802 10.2901C18.0501 10.2901 17.6202 9.8604 17.6202 9.33015C17.6202 8.79996 18.0501 8.37015 18.5802 8.37015C19.1105 8.37015 19.5402 8.79996 19.5402 9.33015Z" fill="url(#paint0_linear_170_371)"/>
<defs>
<linearGradient id="paint0_linear_170_371" x1="17.5099" y1="7.60059" x2="7.50988" y2="21.2006" gradientUnits="userSpaceOnUse">
<stop stop-color="#653DCE"/>
<stop offset="0.749412" stop-color="#E62252"/>
<stop offset="1" stop-color="#F87449"/>
</linearGradient>
</defs>
</svg>
