<svg width="29" height="37" viewBox="0 0 29 37" fill="none" xmlns="http://www.w3.org/2000/svg">
<path d="M19.8245 16.0836C19.8245 19.2684 17.3923 21.778 14.4784 21.778C11.5646 21.778 9.13235 19.2684 9.13235 16.0836C9.13235 12.8988 11.5646 10.3892 14.4784 10.3892C17.3923 10.3892 19.8245 12.8988 19.8245 16.0836Z" stroke="#6E9500" stroke-width="1.5"/>
<path fill-rule="evenodd" clip-rule="evenodd" d="M23.6856 6.1315L23.6893 6.13514C24.8927 7.34523 25.8513 8.7931 26.5066 10.3948C27.1619 11.9966 27.5 13.7185 27.5 15.459C27.5 17.1995 27.1619 18.9215 26.5066 20.5232C25.8513 22.1249 24.8927 23.5728 23.6893 24.7829L23.6856 24.7866L14.4992 34.0876L5.31448 24.7867L5.31073 24.7829C4.89181 24.3617 4.50257 23.9116 4.14545 23.4363L2.34515 23.4738C2.89468 24.3277 3.53183 25.1214 4.24716 25.8406L13.445 35.1549L14.4991 36.2223L15.5532 35.155L24.7528 25.8406C26.0972 24.4888 27.1655 22.874 27.8949 21.0912C28.6243 19.3084 29 17.3934 29 15.459C29 13.5246 28.6243 11.6097 27.8949 9.82684C27.1655 8.044 26.0972 6.42921 24.7528 5.07739C19.0903 -0.655355 9.90965 -0.655355 4.24716 5.07739C2.90275 6.42921 1.83446 8.044 1.10509 9.82684C0.375726 11.6097 0 13.5246 0 15.459C0 16.4441 0.0974281 17.4241 0.289368 18.3841L1.81544 18.3524C1.60638 17.4057 1.5 16.4353 1.5 15.459C1.5 13.7185 1.83811 11.9966 2.49341 10.3948C3.14867 8.7931 4.10727 7.34522 5.31073 6.13514L5.31434 6.13149C10.3896 0.993278 18.6104 0.993278 23.6856 6.1315Z" fill="white"/>
</svg>
