<svg width="11" height="15" viewBox="0 0 11 15" fill="none" xmlns="http://www.w3.org/2000/svg">
<path d="M5.5 7.61473C6.25625 7.61473 6.875 6.9744 6.875 6.19178C6.875 5.40916 6.25625 4.76884 5.5 4.76884C4.74375 4.76884 4.125 5.40916 4.125 6.19178C4.125 6.9744 4.74375 7.61473 5.5 7.61473ZM5.5 0.5C8.3875 0.5 11 2.79094 11 6.33407C11 8.59656 9.31562 11.2575 5.95375 14.3239C5.6925 14.5587 5.30062 14.5587 5.03937 14.3239C1.68437 11.2575 0 8.59656 0 6.33407C0 2.79094 2.6125 0.5 5.5 0.5Z" fill="white"/>
</svg>
