<svg width="30" height="31" viewBox="0 0 30 31" fill="none" xmlns="http://www.w3.org/2000/svg">
<path d="M26.2588 14.4831C26.5698 14.5772 26.9002 14.4016 26.9736 14.0852C27.2711 12.8041 27.2837 11.4694 27.0077 10.1726C26.6906 8.68272 26.0025 7.28965 25.0053 6.11881C24.0081 4.94797 22.7332 4.03612 21.2953 3.46536C20.0401 2.9671 18.6951 2.74245 17.3535 2.80409C17.0311 2.81891 16.8008 3.11141 16.8404 3.4317C16.8791 3.74535 17.1626 3.96765 17.4784 3.95532C18.6319 3.91027 19.787 4.10722 20.8662 4.5356C22.1227 5.03438 23.2368 5.83124 24.1083 6.85442C24.9797 7.8776 25.581 9.09498 25.8582 10.3969C26.0942 11.5058 26.0887 12.6464 25.8448 13.7438C25.7744 14.0609 25.9479 14.389 26.2588 14.4831Z" fill="#6E9500"/>
<path d="M21.8797 12.9335C22.0518 12.9799 22.2305 12.8781 22.2614 12.7026C22.3473 12.2161 22.3334 11.7162 22.2195 11.2333C22.0807 10.6454 21.798 10.1012 21.3966 9.64983C20.9953 9.19843 20.488 8.85393 19.9204 8.64735C19.4541 8.47766 18.9592 8.40543 18.4661 8.43374C18.2881 8.44396 18.1661 8.60944 18.1921 8.78578C18.218 8.96212 18.3821 9.08222 18.5602 9.0754C18.947 9.0606 19.334 9.12083 19.6996 9.25389C20.1666 9.42385 20.584 9.7073 20.9143 10.0787C21.2445 10.4501 21.4771 10.8978 21.5913 11.3815C21.6806 11.7602 21.6952 12.1516 21.6352 12.534C21.6076 12.7101 21.7076 12.8871 21.8797 12.9335Z" fill="#6E9500"/>
<path fill-rule="evenodd" clip-rule="evenodd" d="M6.75028 10.9777L6.10554 11.7387L6.55785 12.6276C9.12755 17.6778 13.3223 21.4086 18.2634 23.9402L19.2557 24.4487L20.0286 23.645L21.749 21.8559C21.7693 21.8373 21.7946 21.8239 21.8229 21.8173C21.8543 21.81 21.8802 21.8132 21.8968 21.8189L21.9048 21.8216L21.9128 21.8243C23.9309 22.491 26.1064 22.85 28.3333 22.85C28.3745 22.85 28.415 22.8655 28.4498 22.9002C28.4845 22.935 28.5 22.9755 28.5 23.0167V28.8333C28.5 28.8745 28.4845 28.915 28.4498 28.9498C28.415 28.9845 28.3745 29 28.3333 29C18.9347 29 10.6659 24.17 5.87331 16.8563L4.389 17.3226C9.4125 25.2433 18.2581 30.5 28.3333 30.5C29.25 30.5 30 29.75 30 28.8333V23.0167C30 22.1 29.25 21.35 28.3333 21.35C26.2667 21.35 24.25 21.0167 22.3833 20.4C21.8 20.2 21.1333 20.35 20.6833 20.8L18.9474 22.6053C14.2307 20.1886 10.2947 16.664 7.89474 11.9474L9.7 9.81667C10.1667 9.35 10.3 8.7 10.1167 8.11667C9.5 6.25 9.16667 4.25 9.16667 2.16667C9.16667 1.25 8.41667 0.5 7.5 0.5H1.66667C0.75 0.5 0 1.25 0 2.16667C0 5.9316 0.734039 9.52484 2.06683 12.8111L3.50325 12.3599C2.21202 9.21727 1.5 5.77524 1.5 2.16667C1.5 2.1255 1.51549 2.085 1.55024 2.05024C1.585 2.01549 1.6255 2 1.66667 2H7.5C7.54117 2 7.58167 2.01549 7.61642 2.05024C7.65118 2.085 7.66667 2.1255 7.66667 2.16667C7.66667 4.40525 8.02408 6.55882 8.68734 8.57194C8.69827 8.60988 8.69756 8.64292 8.69155 8.66859C8.68593 8.6926 8.67324 8.72211 8.63934 8.75601L8.59557 8.79978L8.55555 8.84702L6.75028 10.9777Z" fill="white"/>
</svg>
