<svg width="28" height="28" viewBox="0 0 28 28" fill="none" xmlns="http://www.w3.org/2000/svg">
<rect width="28" height="28" rx="14" fill="#1DA1F2"/>
<path d="M13.7383 11.2822C12.4184 11.1983 11.129 10.8467 9.94855 10.2482C8.72867 9.62977 7.65258 8.76153 6.79023 7.69995L6.69589 7.58381L6.61972 7.7126C6.3071 8.24114 6.13333 8.85008 6.13333 9.51562V9.5157C6.13373 10.1042 6.27935 10.6836 6.55728 11.2024C6.77587 11.6105 7.071 11.9711 7.42534 12.2653C7.00948 12.204 6.61576 12.067 6.26997 11.8718L6.11458 11.7841V11.9625V12.006V12.0063H6.19405L6.16753 12.0532C6.18472 12.0629 6.20202 12.0725 6.21942 12.0819C6.23476 12.8563 6.50895 13.6042 6.99943 14.2056C7.45604 14.7654 8.07471 15.1672 8.76755 15.3577C8.68936 15.3732 8.61232 15.3857 8.53602 15.3955C8.61095 15.421 8.68685 15.4441 8.76363 15.4646L13.7383 11.2822ZM13.7383 11.2822C13.3256 8.91692 15.1141 7.02083 17.2563 7.02083C18.2653 7.02083 19.1758 7.43501 19.8267 8.10575C20.5784 7.95799 21.2975 7.67341 21.9409 7.29461L22.1771 7.15553L22.0929 7.41639C21.8728 8.09796 21.4538 8.69214 20.8973 9.12694L13.7383 11.2822ZM6.32291 12.0189C6.70295 12.2159 7.13309 12.346 7.58386 12.3896L6.32291 12.0189ZM6.32291 12.0189C6.32291 12.0147 6.32291 12.0106 6.32292 12.0065V12.0063V11.9625H6.21875L6.19408 12.0062L6.32291 12.0189ZM7.62263 12.2885C7.22015 11.9858 6.88767 11.5986 6.6491 11.1532C6.37926 10.6495 6.23789 10.087 6.2375 9.51562L7.62263 12.2885ZM0.104167 14C0.104167 6.32628 6.32628 0.104167 14 0.104167C21.6737 0.104167 27.8958 6.32628 27.8958 14C27.8958 21.6737 21.6737 27.8958 14 27.8958C6.32628 27.8958 0.104167 21.6737 0.104167 14Z" fill="white" fill-opacity="0.95" stroke="#6277BF" stroke-width="0.208333"/>
</svg>
