<svg width="12" height="12" viewBox="0 0 12 12" fill="none" xmlns="http://www.w3.org/2000/svg">
<path d="M10.8024 8.17887L9.10911 7.98554C8.70245 7.93887 8.30245 8.07887 8.01578 8.36554L6.78911 9.59221C4.90245 8.63221 3.35578 7.09221 2.39578 5.19887L3.62912 3.96554C3.91578 3.67887 4.05578 3.27887 4.00911 2.87221L3.81578 1.19221C3.73578 0.518874 3.16912 0.012207 2.48912 0.012207H1.33578C0.582449 0.012207 -0.0442177 0.638874 0.00244898 1.39221C0.355782 7.08554 4.90912 11.6322 10.5958 11.9855C11.3491 12.0322 11.9758 11.4055 11.9758 10.6522V9.49887C11.9824 8.82554 11.4758 8.25887 10.8024 8.17887Z" fill="white"/>
</svg>
