<svg width="29" height="28" viewBox="0 0 29 28" fill="none" xmlns="http://www.w3.org/2000/svg">
<rect x="0.168681" y="0.104167" width="27.7917" height="27.7917" rx="13.8958" fill="#F2F7FC" stroke="#6277BF" stroke-width="0.208333"/>
<path d="M21.329 9.75386C21.2418 9.41486 21.0718 9.10582 20.8358 8.85749C20.5997 8.60916 20.306 8.43021 19.9838 8.33846C18.8042 8 14.0569 8 14.0569 8C14.0569 8 9.30931 8.01025 8.12975 8.34871C7.80754 8.44046 7.51381 8.61942 7.27779 8.86776C7.04177 9.1161 6.8717 9.42516 6.78453 9.76416C6.42774 11.9692 6.28933 15.3293 6.79432 17.4461C6.88151 17.7851 7.05158 18.0942 7.2876 18.3425C7.52362 18.5908 7.81735 18.7698 8.13955 18.8615C9.31911 19.2 14.0666 19.2 14.0666 19.2C14.0666 19.2 18.814 19.2 19.9935 18.8615C20.3157 18.7698 20.6094 18.5909 20.8455 18.3425C21.0815 18.0942 21.2516 17.7851 21.3388 17.4461C21.7151 15.2379 21.8311 11.88 21.329 9.75392V9.75386Z" fill="#FF0000"/>
<path d="M12.864 15.9997L16.864 13.5997L12.864 11.1997L12.864 15.9997Z" fill="white"/>
</svg>
